<svg width="704" height="311" viewBox="0 0 704 311" fill="none" xmlns="http://www.w3.org/2000/svg">
<path d="M0.09091 117V0.63636H39.4091C48.5379 0.63636 56 2.28409 61.7955 5.57954C67.6288 8.83712 71.947 13.25 74.75 18.8182C77.553 24.3864 78.9545 30.5985 78.9545 37.4545C78.9545 44.3106 77.553 50.5417 74.75 56.1477C71.9849 61.7538 67.7046 66.2235 61.9091 69.5568C56.1136 72.8523 48.6894 74.5 39.6364 74.5H11.4545V62H39.1818C45.4318 62 50.4508 60.9205 54.2386 58.7614C58.0265 56.6023 60.7727 53.6856 62.4773 50.0114C64.2197 46.2992 65.0909 42.1136 65.0909 37.4545C65.0909 32.7955 64.2197 28.6288 62.4773 24.9545C60.7727 21.2803 58.0076 18.4015 54.1818 16.3182C50.3561 14.197 45.2803 13.1364 38.9545 13.1364H14.1818V117H0.09091ZM178.017 0.63636H192.108V77.6818C192.108 85.6364 190.233 92.7386 186.483 98.9886C182.771 105.201 177.525 110.106 170.744 113.705C163.964 117.265 156.009 119.045 146.881 119.045C137.752 119.045 129.797 117.265 123.017 113.705C116.237 110.106 110.972 105.201 107.222 98.9886C103.509 92.7386 101.653 85.6364 101.653 77.6818V0.63636H115.744V76.5455C115.744 82.2273 116.994 87.2841 119.494 91.7159C121.994 96.1098 125.555 99.5758 130.176 102.114C134.835 104.614 140.403 105.864 146.881 105.864C153.358 105.864 158.926 104.614 163.585 102.114C168.244 99.5758 171.805 96.1098 174.267 91.7159C176.767 87.2841 178.017 82.2273 178.017 76.5455V0.63636ZM220.247 117V0.63636H234.338V58.3636H235.702L287.974 0.63636H306.384L257.52 53.1364L306.384 117H289.338L248.884 62.9091L234.338 79.2727V117H220.247ZM400.986 0.63636H415.077V77.6818C415.077 85.6364 413.202 92.7386 409.452 98.9886C405.74 105.201 400.493 110.106 393.713 113.705C386.933 117.265 378.978 119.045 369.849 119.045C360.721 119.045 352.766 117.265 345.986 113.705C339.205 110.106 333.94 105.201 330.19 98.9886C326.478 92.7386 324.622 85.6364 324.622 77.6818V0.63636H338.713V76.5455C338.713 82.2273 339.963 87.2841 342.463 91.7159C344.963 96.1098 348.524 99.5758 353.145 102.114C357.804 104.614 363.372 105.864 369.849 105.864C376.327 105.864 381.895 104.614 386.554 102.114C391.213 99.5758 394.774 96.1098 397.236 91.7159C399.736 87.2841 400.986 82.2273 400.986 76.5455V0.63636ZM436.852 13.1364V0.63636H524.125V13.1364H487.534V117H473.443V13.1364H436.852ZM537.051 117H522.278L565.006 0.63636H579.551L622.278 117H607.506L572.733 19.0455H571.824L537.051 117ZM542.506 71.5455H602.051V84.0455H542.506V71.5455ZM0.09091 194.636H16.9091L56.4545 291.227H57.8182L97.3636 194.636H114.182V311H101V222.591H99.8636L63.5 311H50.7727L14.4091 222.591H13.2727V311H0.09091V194.636ZM163.571 311L131.753 194.636H146.071L170.389 289.409H171.526L196.298 194.636H212.207L236.98 289.409H238.116L262.435 194.636H276.753L244.935 311H230.389L204.707 218.273H203.798L178.116 311H163.571ZM290.02 311H275.247L317.974 194.636H332.52L375.247 311H360.474L325.702 213.045H324.793L290.02 311ZM295.474 265.545H355.02V278.045H295.474V265.545ZM485.645 194.636V311H472.009L408.599 219.636H407.463V311H393.372V194.636H407.009L470.645 286.227H471.781V194.636H485.645ZM509.977 311V300.773L572.705 207.136H509.295V194.636H589.523V204.864L526.795 298.5H590.205V311H509.977ZM618.614 311H603.841L646.568 194.636H661.114L703.841 311H689.068L654.295 213.045H653.386L618.614 311ZM624.068 265.545H683.614V278.045H624.068V265.545Z" fill="black"/>
</svg>
